<svg xmlns="http://www.w3.org/2000/svg" width="1200" height="630" viewBox="0 0 1200 630">
  <defs>
    <linearGradient id="bg" x1="0" y1="0" x2="1" y2="1">
      <stop offset="0" stop-color="#28336f"/>
      <stop offset="1" stop-color="#1b2450"/>
    </linearGradient>
    <radialGradient id="glow" cx="0.78" cy="0.5" r="0.55">
      <stop offset="0" stop-color="#ec7a2c" stop-opacity="0.16"/>
      <stop offset="1" stop-color="#ec7a2c" stop-opacity="0"/>
    </radialGradient>
    <radialGradient id="earth" cx="0.4" cy="0.36" r="0.75">
      <stop offset="0" stop-color="#2b3877"/>
      <stop offset="1" stop-color="#1b2450"/>
    </radialGradient>
  </defs>

  <rect width="1200" height="630" fill="url(#bg)"/>
  <rect width="1200" height="630" fill="url(#glow)"/>

  <!-- faint background field grid -->
  <g fill="none" stroke="#ec7a2c" stroke-opacity="0.06" stroke-width="1.1">
    <path d="M-40 150 Q600 80 1240 170"/>
    <path d="M-40 320 Q600 270 1240 350"/>
    <path d="M-40 500 Q600 470 1240 520"/>
    <path d="M300 -40 Q260 315 360 670"/>
  </g>

  <!-- Earth globe: solid navy sphere + orange lat/long graticule + beige rim -->
  <circle cx="945" cy="315" r="215" fill="url(#earth)"/>
  <g fill="none" stroke="#ec7a2c" stroke-opacity="0.5" stroke-width="1.5" stroke-linecap="round">
    <path d="M 945.0 100.0 L 945.0 100.3 L 945.0 101.2 L 945.0 102.6 L 945.0 104.7 L 945.0 107.3 L 945.0 110.5 L 945.0 114.3 L 945.0 118.6"/>
    <path d="M 915.1 102.1 L 918.6 102.2 L 922.3 102.8 L 926.0 104.0 L 929.7 105.8 L 933.5 108.2 L 937.3 111.1 L 941.2 114.6 L 945.0 118.6"/>
    <path d="M 875.9 111.4 L 882.3 109.6 L 888.8 108.3 L 895.5 107.6 L 902.3 107.5 L 909.2 107.9 L 916.3 109.0 L 923.4 110.5 L 930.6 112.7 L 937.8 115.4 L 945.0 118.6"/>
    <path d="M 820.4 139.8 L 827.8 134.8 L 835.6 130.4 L 843.6 126.5 L 851.9 123.0 L 860.5 120.1 L 869.3 117.8 L 878.3 116.0 L 887.5 114.7 L 896.8 114.0 L 906.3 113.8 L 915.9 114.2 L 925.5 115.1 L 935.3 116.6 L 945.0 118.6"/>
    <path d="M 747.3 230.4 L 751.6 221.2 L 756.3 212.3 L 761.6 203.6 L 767.4 195.3 L 773.7 187.3 L 780.5 179.6 L 787.7 172.3 L 795.3 165.4 L 803.3 158.9 L 811.8 152.8 L 820.5 147.2 L 829.7 142.0 L 839.1 137.3 L 848.9 133.1 L 858.9 129.4 L 869.1 126.2 L 879.6 123.5 L 890.2 121.4 L 901.0 119.7 L 911.9 118.6 L 922.9 118.1 L 933.9 118.1 L 945.0 118.6"/>
    <path d="M 747.3 399.6 L 743.6 390.1 L 740.5 380.5 L 737.9 370.7 L 735.9 360.7 L 734.4 350.6 L 733.6 340.4 L 733.3 330.2 L 733.6 319.9 L 734.4 309.6 L 735.9 299.3 L 737.9 289.0 L 740.5 278.8 L 743.6 268.7 L 747.3 258.8 L 751.6 249.0 L 756.3 239.4 L 761.6 229.9 L 767.4 220.8 L 773.7 211.8 L 780.5 203.2 L 787.7 194.9 L 795.3 186.9 L 803.3 179.2 L 811.8 171.9 L 820.5 165.0 L 829.7 158.5 L 839.1 152.5 L 848.9 146.9 L 858.9 141.7 L 869.1 137.1 L 879.6 132.9 L 890.2 129.2 L 901.0 126.0 L 911.9 123.4 L 922.9 121.3 L 933.9 119.7 L 945.0 118.6"/>
    <path d="M 820.4 490.2 L 813.3 484.8 L 806.6 478.9 L 800.3 472.6 L 794.4 465.8 L 788.8 458.6 L 783.8 451.1 L 779.1 443.1 L 774.9 434.8 L 771.2 426.2 L 767.9 417.3 L 765.1 408.1 L 762.9 398.6 L 761.1 388.9 L 759.8 379.0 L 759.1 368.9 L 758.8 358.7 L 759.1 348.4 L 759.8 338.0 L 761.1 327.5 L 762.9 316.9 L 765.1 306.4 L 767.9 295.9 L 771.2 285.4 L 774.9 275.1 L 779.1 264.8 L 783.8 254.7 L 788.8 244.7 L 794.4 234.9 L 800.3 225.4 L 806.6 216.1 L 813.3 207.0 L 820.4 198.3 L 827.8 189.9 L 835.6 181.8 L 843.6 174.1 L 851.9 166.8 L 860.5 159.8 L 869.3 153.4 L 878.3 147.3 L 887.5 141.7 L 896.8 136.6 L 906.3 132.0 L 915.9 127.8 L 925.5 124.2 L 935.3 121.1 L 945.0 118.6"/>
    <path d="M 875.9 518.6 L 869.7 516.2 L 863.8 513.3 L 858.0 509.8 L 852.5 505.8 L 847.3 501.3 L 842.3 496.2 L 837.6 490.7 L 833.2 484.6 L 829.1 478.2 L 825.3 471.2 L 821.9 463.9 L 818.7 456.1 L 816.0 447.9 L 813.6 439.4 L 811.5 430.5 L 809.8 421.4 L 808.5 411.9 L 807.6 402.2 L 807.0 392.2 L 806.8 382.0 L 807.0 371.6 L 807.6 361.1 L 808.5 350.4 L 809.8 339.7 L 811.5 328.9 L 813.6 318.0 L 816.0 307.2 L 818.7 296.3 L 821.9 285.5 L 825.3 274.8 L 829.1 264.2 L 833.2 253.7 L 837.6 243.5 L 842.3 233.4 L 847.3 223.5 L 852.5 213.9 L 858.0 204.5 L 863.8 195.5 L 869.7 186.8 L 875.9 178.4 L 882.3 170.4 L 888.8 162.8 L 895.5 155.6 L 902.3 148.9 L 909.2 142.6 L 916.3 136.8 L 923.4 131.5 L 930.6 126.7 L 937.8 122.4 L 945.0 118.6"/>
    <path d="M 911.6 527.3 L 908.2 526.2 L 905.0 524.5 L 901.8 522.2 L 898.7 519.4 L 895.8 515.9 L 893.0 512.0 L 890.4 507.5 L 887.9 502.5 L 885.5 496.9 L 883.3 490.9 L 881.3 484.4 L 879.5 477.4 L 877.8 470.0 L 876.3 462.1 L 875.1 453.8 L 874.0 445.2 L 873.1 436.2 L 872.4 426.9 L 871.9 417.3 L 871.6 407.3 L 871.5 397.2 L 871.6 386.8 L 871.9 376.2 L 872.4 365.4 L 873.1 354.5 L 874.0 343.5 L 875.1 332.5 L 876.3 321.3 L 877.8 310.2 L 879.5 299.0 L 881.3 288.0 L 883.3 276.9 L 885.5 266.0 L 887.9 255.3 L 890.4 244.6 L 893.0 234.2 L 895.8 224.0 L 898.7 214.1 L 901.8 204.4 L 905.0 195.0 L 908.2 186.0 L 911.6 177.3 L 915.1 169.0 L 918.6 161.1 L 922.3 153.6 L 926.0 146.5 L 929.7 140.0 L 933.5 133.9 L 937.3 128.3 L 941.2 123.2 L 945.0 118.6"/>
    <path d="M 945.0 530.0 L 945.0 529.7 L 945.0 528.8 L 945.0 527.4 L 945.0 525.3 L 945.0 522.7 L 945.0 519.5 L 945.0 515.7 L 945.0 511.4 L 945.0 506.6 L 945.0 501.2 L 945.0 495.3 L 945.0 488.9 L 945.0 482.1 L 945.0 474.8 L 945.0 467.0 L 945.0 458.9 L 945.0 450.3 L 945.0 441.4 L 945.0 432.1 L 945.0 422.5 L 945.0 412.6 L 945.0 402.4 L 945.0 392.0 L 945.0 381.4 L 945.0 370.6 L 945.0 359.7 L 945.0 348.6 L 945.0 337.5 L 945.0 326.3 L 945.0 315.0 L 945.0 303.7 L 945.0 292.5 L 945.0 281.4 L 945.0 270.3 L 945.0 259.4 L 945.0 248.6 L 945.0 238.0 L 945.0 227.6 L 945.0 217.4 L 945.0 207.5 L 945.0 197.9 L 945.0 188.6 L 945.0 179.7 L 945.0 171.1 L 945.0 163.0 L 945.0 155.2 L 945.0 147.9 L 945.0 141.1 L 945.0 134.7 L 945.0 128.8 L 945.0 123.4 L 945.0 118.6"/>
    <path d="M 978.4 527.3 L 981.8 526.2 L 985.0 524.5 L 988.2 522.2 L 991.3 519.4 L 994.2 515.9 L 997.0 512.0 L 999.6 507.5 L 1002.1 502.5 L 1004.5 496.9 L 1006.7 490.9 L 1008.7 484.4 L 1010.5 477.4 L 1012.2 470.0 L 1013.7 462.1 L 1014.9 453.8 L 1016.0 445.2 L 1016.9 436.2 L 1017.6 426.9 L 1018.1 417.3 L 1018.4 407.3 L 1018.5 397.2 L 1018.4 386.8 L 1018.1 376.2 L 1017.6 365.4 L 1016.9 354.5 L 1016.0 343.5 L 1014.9 332.5 L 1013.7 321.3 L 1012.2 310.2 L 1010.5 299.0 L 1008.7 288.0 L 1006.7 276.9 L 1004.5 266.0 L 1002.1 255.3 L 999.6 244.6 L 997.0 234.2 L 994.2 224.0 L 991.3 214.1 L 988.2 204.4 L 985.0 195.0 L 981.8 186.0 L 978.4 177.3 L 974.9 169.0 L 971.4 161.1 L 967.7 153.6 L 964.0 146.5 L 960.3 140.0 L 956.5 133.9 L 952.7 128.3 L 948.8 123.2 L 945.0 118.6"/>
    <path d="M 1014.1 518.6 L 1020.3 516.2 L 1026.2 513.3 L 1032.0 509.8 L 1037.5 505.8 L 1042.7 501.3 L 1047.7 496.2 L 1052.4 490.7 L 1056.8 484.6 L 1060.9 478.2 L 1064.7 471.2 L 1068.1 463.9 L 1071.3 456.1 L 1074.0 447.9 L 1076.4 439.4 L 1078.5 430.5 L 1080.2 421.4 L 1081.5 411.9 L 1082.4 402.2 L 1083.0 392.2 L 1083.2 382.0 L 1083.0 371.6 L 1082.4 361.1 L 1081.5 350.4 L 1080.2 339.7 L 1078.5 328.9 L 1076.4 318.0 L 1074.0 307.2 L 1071.3 296.3 L 1068.1 285.5 L 1064.7 274.8 L 1060.9 264.2 L 1056.8 253.7 L 1052.4 243.5 L 1047.7 233.4 L 1042.7 223.5 L 1037.5 213.9 L 1032.0 204.5 L 1026.2 195.5 L 1020.3 186.8 L 1014.1 178.4 L 1007.7 170.4 L 1001.2 162.8 L 994.5 155.6 L 987.7 148.9 L 980.8 142.6 L 973.7 136.8 L 966.6 131.5 L 959.4 126.7 L 952.2 122.4 L 945.0 118.6"/>
    <path d="M 1069.6 490.2 L 1076.7 484.8 L 1083.4 478.9 L 1089.7 472.6 L 1095.6 465.8 L 1101.2 458.6 L 1106.2 451.1 L 1110.9 443.1 L 1115.1 434.8 L 1118.8 426.2 L 1122.1 417.3 L 1124.9 408.1 L 1127.1 398.6 L 1128.9 388.9 L 1130.2 379.0 L 1130.9 368.9 L 1131.2 358.7 L 1130.9 348.4 L 1130.2 338.0 L 1128.9 327.5 L 1127.1 316.9 L 1124.9 306.4 L 1122.1 295.9 L 1118.8 285.4 L 1115.1 275.1 L 1110.9 264.8 L 1106.2 254.7 L 1101.2 244.7 L 1095.6 234.9 L 1089.7 225.4 L 1083.4 216.1 L 1076.7 207.0 L 1069.6 198.3 L 1062.2 189.9 L 1054.4 181.8 L 1046.4 174.1 L 1038.1 166.8 L 1029.5 159.8 L 1020.7 153.4 L 1011.7 147.3 L 1002.5 141.7 L 993.2 136.6 L 983.7 132.0 L 974.1 127.8 L 964.5 124.2 L 954.7 121.1 L 945.0 118.6"/>
    <path d="M 1142.7 399.6 L 1146.4 390.1 L 1149.5 380.5 L 1152.1 370.7 L 1154.1 360.7 L 1155.6 350.6 L 1156.4 340.4 L 1156.7 330.2 L 1156.4 319.9 L 1155.6 309.6 L 1154.1 299.3 L 1152.1 289.0 L 1149.5 278.8 L 1146.4 268.7 L 1142.7 258.8 L 1138.4 249.0 L 1133.7 239.4 L 1128.4 229.9 L 1122.6 220.8 L 1116.3 211.8 L 1109.5 203.2 L 1102.3 194.9 L 1094.7 186.9 L 1086.7 179.2 L 1078.2 171.9 L 1069.5 165.0 L 1060.3 158.5 L 1050.9 152.5 L 1041.1 146.9 L 1031.1 141.7 L 1020.9 137.1 L 1010.4 132.9 L 999.8 129.2 L 989.0 126.0 L 978.1 123.4 L 967.1 121.3 L 956.1 119.7 L 945.0 118.6"/>
    <path d="M 1142.7 230.4 L 1138.4 221.2 L 1133.7 212.3 L 1128.4 203.6 L 1122.6 195.3 L 1116.3 187.3 L 1109.5 179.6 L 1102.3 172.3 L 1094.7 165.4 L 1086.7 158.9 L 1078.2 152.8 L 1069.5 147.2 L 1060.3 142.0 L 1050.9 137.3 L 1041.1 133.1 L 1031.1 129.4 L 1020.9 126.2 L 1010.4 123.5 L 999.8 121.4 L 989.0 119.7 L 978.1 118.6 L 967.1 118.1 L 956.1 118.1 L 945.0 118.6"/>
    <path d="M 1069.6 139.8 L 1062.2 134.8 L 1054.4 130.4 L 1046.4 126.5 L 1038.1 123.0 L 1029.5 120.1 L 1020.7 117.8 L 1011.7 116.0 L 1002.5 114.7 L 993.2 114.0 L 983.7 113.8 L 974.1 114.2 L 964.5 115.1 L 954.7 116.6 L 945.0 118.6"/>
    <path d="M 1014.1 111.4 L 1007.7 109.6 L 1001.2 108.3 L 994.5 107.6 L 987.7 107.5 L 980.8 107.9 L 973.7 109.0 L 966.6 110.5 L 959.4 112.7 L 952.2 115.4 L 945.0 118.6"/>
    <path d="M 974.9 102.1 L 971.4 102.2 L 967.7 102.8 L 964.0 104.0 L 960.3 105.8 L 956.5 108.2 L 952.7 111.1 L 948.8 114.6 L 945.0 118.6"/>
    <path d="M 873.1 517.6 L 877.3 519.1 L 881.8 520.5 L 886.5 521.8 L 891.2 523.0 L 896.2 524.1 L 901.3 525.0 L 906.5 525.9 L 911.8 526.7 L 917.2 527.3 L 922.6 527.9 L 928.2 528.3 L 933.8 528.6 L 939.4 528.8 L 945.0 528.8 L 950.6 528.8 L 956.2 528.6 L 961.8 528.3 L 967.4 527.9 L 972.8 527.3 L 978.2 526.7 L 983.5 525.9 L 988.7 525.0 L 993.8 524.1 L 998.8 523.0 L 1003.5 521.8 L 1008.2 520.5 L 1012.7 519.1 L 1016.9 517.6"/>
    <path d="M 791.2 465.3 L 794.5 468.5 L 798.3 471.7 L 802.4 474.7 L 806.9 477.7 L 811.8 480.6 L 817.0 483.4 L 822.6 486.1 L 828.5 488.6 L 834.8 491.0 L 841.4 493.3 L 848.2 495.4 L 855.3 497.4 L 862.7 499.3 L 870.2 500.9 L 878.0 502.4 L 886.0 503.8 L 894.1 505.0 L 902.4 506.0 L 910.8 506.8 L 919.2 507.4 L 927.8 507.9 L 936.4 508.1 L 945.0 508.2 L 953.6 508.1 L 962.2 507.9 L 970.8 507.4 L 979.2 506.8 L 987.6 506.0 L 995.9 505.0 L 1004.0 503.8 L 1012.0 502.4 L 1019.8 500.9 L 1027.3 499.3 L 1034.7 497.4 L 1041.8 495.4 L 1048.6 493.3 L 1055.2 491.0 L 1061.5 488.6 L 1067.4 486.1 L 1073.0 483.4 L 1078.2 480.6 L 1083.1 477.7 L 1087.6 474.7 L 1091.7 471.7 L 1095.5 468.5 L 1098.8 465.3"/>
    <path d="M 745.5 395.0 L 747.4 399.3 L 749.9 403.4 L 752.9 407.6 L 756.4 411.6 L 760.4 415.6 L 765.0 419.5 L 770.0 423.3 L 775.6 426.9 L 781.6 430.5 L 788.0 433.9 L 794.9 437.2 L 802.1 440.3 L 809.8 443.2 L 817.9 446.0 L 826.2 448.7 L 835.0 451.1 L 844.0 453.3 L 853.3 455.4 L 862.8 457.2 L 872.6 458.9 L 882.6 460.3 L 892.7 461.6 L 903.0 462.6 L 913.4 463.3 L 923.9 463.9 L 934.4 464.2 L 945.0 464.4 L 955.6 464.2 L 966.1 463.9 L 976.6 463.3 L 987.0 462.6 L 997.3 461.6 L 1007.4 460.3 L 1017.4 458.9 L 1027.2 457.2 L 1036.7 455.4 L 1046.0 453.3 L 1055.0 451.1 L 1063.8 448.7 L 1072.1 446.0 L 1080.2 443.2 L 1087.9 440.3 L 1095.1 437.2 L 1102.0 433.9 L 1108.4 430.5 L 1114.4 426.9 L 1120.0 423.3 L 1125.0 419.5 L 1129.6 415.6 L 1133.6 411.6 L 1137.1 407.6 L 1140.1 403.4 L 1142.6 399.3 L 1144.5 395.0"/>
    <path d="M 730.0 315.0 L 730.3 319.6 L 731.2 324.1 L 732.6 328.7 L 734.7 333.2 L 737.3 337.6 L 740.5 342.0 L 744.3 346.3 L 748.6 350.6 L 753.4 354.7 L 758.8 358.7 L 764.7 362.6 L 771.1 366.4 L 777.9 370.0 L 785.2 373.5 L 793.0 376.8 L 801.1 380.0 L 809.7 383.0 L 818.6 385.7 L 827.9 388.3 L 837.5 390.7 L 847.4 392.9 L 857.6 394.9 L 868.0 396.6 L 878.6 398.2 L 889.4 399.5 L 900.3 400.5 L 911.4 401.4 L 922.5 402.0 L 933.7 402.3 L 945.0 402.4 L 956.3 402.3 L 967.5 402.0 L 978.6 401.4 L 989.7 400.5 L 1000.6 399.5 L 1011.4 398.2 L 1022.0 396.6 L 1032.4 394.9 L 1042.6 392.9 L 1052.5 390.7 L 1062.1 388.3 L 1071.4 385.7 L 1080.3 383.0 L 1088.9 380.0 L 1097.0 376.8 L 1104.8 373.5 L 1112.1 370.0 L 1118.9 366.4 L 1125.3 362.6 L 1131.2 358.7 L 1136.6 354.7 L 1141.4 350.6 L 1145.7 346.3 L 1149.5 342.0 L 1152.7 337.6 L 1155.3 333.2 L 1157.4 328.7 L 1158.8 324.1 L 1159.7 319.6 L 1160.0 315.0"/>
    <path d="M 745.5 235.0 L 744.1 239.2 L 743.2 243.5 L 743.0 247.8 L 743.2 252.1 L 744.1 256.4 L 745.5 260.7 L 747.4 264.9 L 749.9 269.1 L 752.9 273.2 L 756.4 277.3 L 760.4 281.2 L 765.0 285.1 L 770.0 288.9 L 775.6 292.6 L 781.6 296.1 L 788.0 299.5 L 794.9 302.8 L 802.1 305.9 L 809.8 308.9 L 817.9 311.7 L 826.2 314.3 L 835.0 316.7 L 844.0 319.0 L 853.3 321.0 L 862.8 322.9 L 872.6 324.5 L 882.6 326.0 L 892.7 327.2 L 903.0 328.2 L 913.4 329.0 L 923.9 329.5 L 934.4 329.9 L 945.0 330.0 L 955.6 329.9 L 966.1 329.5 L 976.6 329.0 L 987.0 328.2 L 997.3 327.2 L 1007.4 326.0 L 1017.4 324.5 L 1027.2 322.9 L 1036.7 321.0 L 1046.0 319.0 L 1055.0 316.7 L 1063.8 314.3 L 1072.1 311.7 L 1080.2 308.9 L 1087.9 305.9 L 1095.1 302.8 L 1102.0 299.5 L 1108.4 296.1 L 1114.4 292.6 L 1120.0 288.9 L 1125.0 285.1 L 1129.6 281.2 L 1133.6 277.3 L 1137.1 273.2 L 1140.1 269.1 L 1142.6 264.9 L 1144.5 260.7 L 1145.9 256.4 L 1146.8 252.1 L 1147.0 247.8 L 1146.8 243.5 L 1145.9 239.2 L 1144.5 235.0"/>
    <path d="M 791.2 164.7 L 788.4 168.0 L 785.9 171.4 L 783.9 174.8 L 782.3 178.3 L 781.2 181.7 L 780.5 185.2 L 780.3 188.7 L 780.5 192.3 L 781.2 195.8 L 782.3 199.2 L 783.9 202.7 L 785.9 206.1 L 788.4 209.4 L 791.2 212.8 L 794.5 216.0 L 798.3 219.2 L 802.4 222.2 L 806.9 225.2 L 811.8 228.1 L 817.0 230.9 L 822.6 233.6 L 828.5 236.1 L 834.8 238.5 L 841.4 240.8 L 848.2 242.9 L 855.3 244.9 L 862.7 246.8 L 870.2 248.4 L 878.0 249.9 L 886.0 251.3 L 894.1 252.5 L 902.4 253.5 L 910.8 254.3 L 919.2 254.9 L 927.8 255.4 L 936.4 255.6 L 945.0 255.7 L 953.6 255.6 L 962.2 255.4 L 970.8 254.9 L 979.2 254.3 L 987.6 253.5 L 995.9 252.5 L 1004.0 251.3 L 1012.0 249.9 L 1019.8 248.4 L 1027.3 246.8 L 1034.7 244.9 L 1041.8 242.9 L 1048.6 240.8 L 1055.2 238.5 L 1061.5 236.1 L 1067.4 233.6 L 1073.0 230.9 L 1078.2 228.1 L 1083.1 225.2 L 1087.6 222.2 L 1091.7 219.2 L 1095.5 216.0 L 1098.8 212.8 L 1101.6 209.4 L 1104.1 206.1 L 1106.1 202.7 L 1107.7 199.2 L 1108.8 195.8 L 1109.5 192.3 L 1109.7 188.7 L 1109.5 185.2 L 1108.8 181.7 L 1107.7 178.3 L 1106.1 174.8 L 1104.1 171.4 L 1101.6 168.0 L 1098.8 164.7"/>
    <path d="M 881.8 109.5 L 877.3 110.9 L 873.1 112.4 L 869.0 114.0 L 865.1 115.6 L 861.5 117.4 L 858.0 119.2 L 854.8 121.1 L 851.9 123.0 L 849.2 125.1 L 846.8 127.1 L 844.6 129.2 L 842.8 131.4 L 841.2 133.6 L 839.8 135.8 L 838.8 138.1 L 838.1 140.3 L 837.6 142.6 L 837.5 144.9 L 837.6 147.2 L 838.1 149.5 L 838.8 151.7 L 839.8 154.0 L 841.2 156.2 L 842.8 158.4 L 844.6 160.6 L 846.8 162.7 L 849.2 164.8 L 851.9 166.8 L 854.8 168.7 L 858.0 170.6 L 861.5 172.4 L 865.1 174.2 L 869.0 175.8 L 873.1 177.4 L 877.3 178.9 L 881.8 180.3 L 886.5 181.6 L 891.2 182.8 L 896.2 183.9 L 901.3 184.8 L 906.5 185.7 L 911.8 186.5 L 917.2 187.1 L 922.6 187.7 L 928.2 188.1 L 933.8 188.4 L 939.4 188.6 L 945.0 188.6 L 950.6 188.6 L 956.2 188.4 L 961.8 188.1 L 967.4 187.7 L 972.8 187.1 L 978.2 186.5 L 983.5 185.7 L 988.7 184.8 L 993.8 183.9 L 998.8 182.8 L 1003.5 181.6 L 1008.2 180.3 L 1012.7 178.9 L 1016.9 177.4 L 1021.0 175.8 L 1024.9 174.2 L 1028.5 172.4 L 1032.0 170.6 L 1035.2 168.7 L 1038.1 166.8 L 1040.8 164.8 L 1043.2 162.7 L 1045.4 160.6 L 1047.2 158.4 L 1048.8 156.2 L 1050.2 154.0 L 1051.2 151.7 L 1051.9 149.5 L 1052.4 147.2 L 1052.5 144.9 L 1052.4 142.6 L 1051.9 140.3 L 1051.2 138.1 L 1050.2 135.8 L 1048.8 133.6 L 1047.2 131.4 L 1045.4 129.2 L 1043.2 127.1 L 1040.8 125.1 L 1038.1 123.0 L 1035.2 121.1 L 1032.0 119.2 L 1028.5 117.4 L 1024.9 115.6 L 1021.0 114.0 L 1016.9 112.4 L 1012.7 110.9 L 1008.2 109.5"/>
  </g>
  <circle cx="945" cy="315" r="215" fill="none" stroke="#f0ecde" stroke-opacity="0.85" stroke-width="2.5"/>

  <!-- satellite orbit ring (tilted) + satellite on it, upper-left of globe -->
  <ellipse cx="945" cy="315" rx="300" ry="150" fill="none" stroke="#ec7a2c" stroke-opacity="0.5" stroke-width="2" transform="rotate(-28 945 315)"/>
  <!-- satellite in front of the earth, on the near arc of the orbit -->
  <g transform="translate(897 494) rotate(-28)">
    <rect x="-34" y="-5" width="20" height="10" fill="#ec7a2c"/>
    <rect x="14" y="-5" width="20" height="10" fill="#ec7a2c"/>
    <rect x="-11" y="-9" width="22" height="18" rx="2" fill="#f0ecde"/>
  </g>

  <!-- text block (left) — kept inside a safe zone so LinkedIn's mobile crop can't clip it -->
  <text x="130" y="238" fill="#ec7a2c" font-family="'Courier New', monospace" font-size="22" letter-spacing="5" font-weight="700">PORTFOLIO &#183; RESEARCH</text>

  <text x="126" y="316" fill="#f0ecde" font-family="Georgia, 'Times New Roman', serif" font-size="56" font-weight="400">Low-gravity fluid</text>
  <text x="126" y="376" fill="#f0ecde" font-family="Georgia, 'Times New Roman', serif" font-size="56" font-weight="400">mechanics &amp;</text>
  <text x="126" y="436" fill="#f0ecde" font-family="Georgia, 'Times New Roman', serif" font-size="56" font-weight="400">nonlinear dynamics</text>

  <rect x="130" y="470" width="100" height="5" fill="#ec7a2c"/>

  <text x="130" y="520" fill="#f0ecde" fill-opacity="0.78" font-family="'Courier New', monospace" font-size="25" letter-spacing="1">giannicassoni.com</text>
</svg>
